<?xml version="1.0" encoding="utf-8"?>
<svg viewBox="93.703 196.451 188.784 99.162" xmlns="http://www.w3.org/2000/svg">
  <rect x="107.683" y="220.606" width="28.522" height="52.968" style="fill: rgb(117, 179, 221); stroke-linejoin: round; stroke-linecap: round; stroke: rgb(117, 179, 221); stroke-width: 30px;"/>
  <path d="M 144.20459747314453 260.98541259765625 L 144.20459747314453 267.75299072265625 L 101.98242950439453 267.75299072265625 L 101.98242950439453 214.77789306640625 L 142.66309356689453 214.77789306640625 L 142.66309356689453 221.54547119140625 L 110.44190216064453 221.54547119140625 L 110.44190216064453 237.29888916015625 L 140.36963653564453 237.29888916015625 L 140.36963653564453 244.02886962890625 L 110.44190216064453 244.02886962890625 L 110.44190216064453 260.98541259765625 Z" transform="matrix(1.0679919719696045, 0, 0, 1.1553599834442139, -8.857673645019531, -32.49049758911133)" style="fill: rgb(255, 255, 255); white-space: pre;"/>
  <path d="M 167.40255737304688 268.50494384765625 Q 161.34933471679688 268.50494384765625 158.19113159179688 265.27154541015625 Q 155.03292846679688 262.03814697265625 155.03292846679688 256.36090087890625 Q 155.03292846679688 250.04449462890625 159.16867065429688 246.69830322265625 Q 163.30441284179688 243.35211181640625 172.10226440429688 243.12652587890625 L 181.08810424804688 242.97613525390625 L 181.08810424804688 240.83306884765625 Q 181.08810424804688 236.17095947265625 179.22702026367188 234.10308837890625 Q 177.36593627929688 232.03521728515625 173.30538940429688 232.03521728515625 Q 169.28244018554688 232.03521728515625 167.45895385742188 233.50152587890625 Q 165.63546752929688 234.96783447265625 165.22189331054688 238.27642822265625 L 156.83761596679688 237.67486572265625 Q 158.67990112304688 226.32037353515625 173.56857299804688 226.32037353515625 Q 181.23849487304688 226.32037353515625 185.20504760742188 229.92974853515625 Q 189.17160034179688 233.53912353515625 189.17160034179688 240.30670166015625 L 189.17160034179688 256.92486572265625 Q 189.17160034179688 260.08306884765625 189.96115112304688 261.53057861328125 Q 190.75070190429688 262.97808837890625 192.81857299804688 262.97808837890625 Q 193.94650268554688 262.97808837890625 195.07443237304688 262.71490478515625 L 195.07443237304688 267.41461181640625 Q 193.57052612304688 267.79058837890625 192.23580932617188 267.97857666015625 Q 190.90109252929688 268.16656494140625 189.35958862304688 268.16656494140625 Q 185.52462768554688 268.16656494140625 183.73873901367188 266.19268798828125 Q 181.95285034179688 264.21881103515625 181.68966674804688 260.15826416015625 L 181.46408081054688 260.15826416015625 Q 178.98263549804688 264.59478759765625 175.58004760742188 266.54986572265625 Q 172.17745971679688 268.50494384765625 167.40255737304688 268.50494384765625 Z M 181.08810424804688 248.08941650390625 L 174.35812377929688 248.20220947265625 Q 169.95919799804688 248.31500244140625 167.81613159179688 249.14215087890625 Q 165.63546752929688 249.96929931640625 164.48873901367188 251.66119384765625 Q 163.34201049804688 253.35308837890625 163.34201049804688 256.13531494140625 Q 163.34201049804688 259.33111572265625 164.97750854492188 261.00421142578125 Q 166.61300659179688 262.67730712890625 169.54562377929688 262.67730712890625 Q 172.89181518554688 262.67730712890625 175.48605346679688 261.09820556640625 Q 178.08029174804688 259.51910400390625 179.58419799804688 256.75567626953125 Q 181.08810424804688 253.99224853515625 181.08810424804688 251.02203369140625 Z M 213.00872802734375 246.96148681640625 L 213.00872802734375 267.75299072265625 L 204.96282958984375 267.75299072265625 L 204.96282958984375 236.58453369140625 Q 204.96282958984375 234.02789306640625 204.90643310546875 231.69683837890625 Q 204.85003662109375 229.36578369140625 204.73724365234375 227.07232666015625 L 212.33197021484375 227.07232666015625 Q 212.40716552734375 228.35064697265625 212.48236083984375 229.66656494140625 Q 212.55755615234375 230.98248291015625 212.59515380859375 232.14801025390625 Q 212.63275146484375 233.31353759765625 212.67034912109375 234.19708251953125 Q 212.70794677734375 235.08062744140625 212.70794677734375 235.49420166015625 L 212.85833740234375 235.49420166015625 Q 214.09906005859375 231.65924072265625 215.41497802734375 229.66656494140625 Q 216.69329833984375 227.82427978515625 218.38519287109375 227.07232666015625 Q 220.07708740234375 226.32037353515625 222.55853271484375 226.32037353515625 Q 224.13763427734375 226.32037353515625 225.45355224609375 226.73394775390625 L 225.45355224609375 233.83990478515625 Q 223.76165771484375 233.38873291015625 221.54339599609375 233.38873291015625 Q 217.44525146484375 233.38873291015625 215.22698974609375 236.86651611328125 Q 213.00872802734375 240.34429931640625 213.00872802734375 246.96148681640625 Z M 244.77899169921875 244.78082275390625 L 244.77899169921875 267.75299072265625 L 236.73309326171875 267.75299072265625 L 236.73309326171875 235.90777587890625 Q 236.73309326171875 232.41119384765625 236.67669677734375 230.28692626953125 Q 236.62030029296875 228.16265869140625 236.50750732421875 227.07232666015625 L 244.10223388671875 227.07232666015625 Q 244.17742919921875 227.71148681640625 244.25262451171875 228.98980712890625 Q 244.32781982421875 230.26812744140625 244.38421630859375 231.73443603515625 Q 244.44061279296875 233.20074462890625 244.47821044921875 234.40386962890625 L 244.59100341796875 234.40386962890625 Q 246.88446044921875 230.04254150390625 250.00506591796875 228.18145751953125 Q 253.12567138671875 226.32037353515625 257.63739013671875 226.32037353515625 Q 264.25457763671875 226.32037353515625 267.46917724609375 229.92974853515625 Q 270.68377685546875 233.53912353515625 270.68377685546875 241.05865478515625 L 270.68377685546875 267.75299072265625 L 262.63787841796875 267.75299072265625 L 262.63787841796875 242.93853759765625 Q 262.63787841796875 237.26129150390625 260.79559326171875 234.85504150390625 Q 258.95330810546875 232.44879150390625 254.62957763671875 232.44879150390625 Q 250.11785888671875 232.44879150390625 247.44842529296875 235.77618408203125 Q 244.77899169921875 239.10357666015625 244.77899169921875 244.78082275390625 Z" transform="matrix(1.0679919719696045, 0, 0, 1.1553599834442139, -8.857673645019531, -32.49049758911133)" style="fill: rgb(51, 51, 51); white-space: pre;"/>
</svg>